<?xml version="1.0" encoding="UTF-8"?>
<svg width="95px" height="44px" viewBox="0 0 95 44" version="1.1" xmlns="http://www.w3.org/2000/svg" xmlns:xlink="http://www.w3.org/1999/xlink">
    <!-- Generator: Sketch 46.2 (44496) - http://www.bohemiancoding.com/sketch -->
    <title>Axess</title>
    <desc>Created with Sketch.</desc>
    <defs></defs>
    <g id="Page-1" stroke="none" stroke-width="1" fill="none" fillRule="evenodd">
        <g id="Axess">
            <rect id="Rectangle" fill="#D8D8D8" opacity="0" x="0" y="0" width="95" height="44"></rect>
            <g id="Axess-Logo" transform="translate(0.000000, 7.000000)">
                <g id="Group-2-Copy">
                    <path d="M19.821806,28.5797993 L17.7050167,24.4088294 L7.75478261,24.4088294 L5.72294314,28.5797993 L0.00494983278,28.5797993 L11.5772575,7.73752508 L13.8314381,7.73752508 L25.5052843,28.5797993 L19.821806,28.5797993 L19.821806,28.5797993 L19.821806,28.5797993 Z M12.7044816,14.0247492 L9.22247492,20.7300334 L16.186087,20.7300334 L12.7044816,14.0247492 L12.7044816,14.0247492 L12.7044816,14.0247492 Z" id="Fill-36" fill="#1A1919"></path>
                    <polygon id="Fill-37" fill="#1A1919" points="38.2137793 28.5797993 32.8421405 21.780602 28.2777258 28.5797993 22.5023411 28.5797993 30.2726421 17.9040803 22.9019398 7.69685619 28.4936455 7.69685619 32.9083612 14.0751839 37.3240134 7.69685619 42.8808027 7.69685619 35.3598662 17.9040803 44.1063545 28.5797993 38.2137793 28.5797993"></polygon>
                    <path d="M63.1226756,19.6318395 L48.2143144,19.6318395 C48.3040803,21.3444816 48.8972575,22.6597993 49.9941137,23.5771237 C51.0341137,24.4620736 52.4288963,24.9038127 54.1740468,24.9038127 C56.3907692,24.9038127 58.08,24.3217391 59.2454849,23.1577258 L61.1248161,26.8841472 C59.413913,28.2726421 56.8548495,28.9654849 53.4519064,28.9654849 C50.1953177,28.9654849 47.649097,28.0088294 45.8140468,26.0959197 C44.0117726,24.2151171 43.1101003,21.6417391 43.1101003,18.3724415 C43.1101003,15.2730435 44.0614047,12.6770569 45.9648161,10.5831438 C47.9233445,8.40240803 50.4303679,7.309699 53.4862876,7.309699 C56.4188629,7.309699 58.8144482,8.17230769 60.6718395,9.89591973 C62.5749833,11.6743813 63.5258863,14.0192642 63.5258863,16.9294983 C63.5258863,17.5225418 63.3919732,18.42301 63.1226756,19.6318395 L63.1226756,19.6318395 L63.1226756,19.6318395 Z M48.381806,15.9728428 L58.6409365,15.9728428 C58.3046154,12.9169231 56.6145819,11.3895652 53.570301,11.3895652 C50.7828763,11.3895652 49.0536455,12.9169231 48.381806,15.9728428 L48.381806,15.9728428 L48.381806,15.9728428 Z" id="Fill-38" fill="#1A1919"></path>
                    <path d="M64.7003344,27.6202007 L66.4287625,23.7423411 C67.8959197,24.8951171 69.5410033,25.4701003 71.3648161,25.4701003 C73.267291,25.4701003 74.2188629,24.7942475 74.2188629,23.4394649 C74.2188629,22.4997993 73.726689,21.6933779 72.7414047,21.0228763 C72.2933779,20.7087625 71.387291,20.2670234 70.0219398,19.6961873 C66.4176589,18.2068227 64.6153846,16.1198662 64.6153846,13.4341137 C64.6153846,11.5098328 65.3930435,10.0373244 66.9491639,9.01913043 C68.2816054,8.13551839 69.9546488,7.69230769 71.9693645,7.69230769 C74.1403344,7.69230769 76.1836789,8.18046823 78.098194,9.15371237 L76.6865552,12.9474247 C75.6234114,12.0288963 74.1403344,11.5716388 72.2378595,11.5716388 C70.5367224,11.5716388 69.6853512,12.2474916 69.6853512,13.602408 C69.6853512,14.3190635 70.2786622,14.9951839 71.4658194,15.633311 C71.8354515,15.8462876 72.7189298,16.2264883 74.1185284,16.7748495 C77.5660201,18.1296321 79.2896321,20.2445485 79.2896321,23.1209365 C79.2896321,25.2359866 78.4494983,26.8474916 76.7707023,27.9553177 C75.3388629,28.8852174 73.5028763,29.3480936 71.2646154,29.3480936 C69.8873579,29.3480936 68.7506355,29.2246154 67.8549833,28.9792642 C67.038796,28.756388 65.9870234,28.3031438 64.7003344,27.6202007 L64.7003344,27.6202007 L64.7003344,27.6202007 Z" id="Fill-39" fill="#1A1919"></path>
                    <path d="M79.9594649,27.237592 L81.6894983,23.3597324 C83.1549164,24.5125084 84.8001338,25.0874916 86.6255518,25.0874916 C88.5280268,25.0874916 89.4789298,24.4116388 89.4789298,23.0568562 C89.4789298,22.1171906 88.9866221,21.3107692 88.0013378,20.6402676 C87.553311,20.3261538 86.6472241,19.8844147 85.2818729,19.3135786 C81.6769231,17.824214 79.8753177,15.7372575 79.8753177,13.051505 C79.8753177,11.1272241 80.6529766,9.65471572 82.2097659,8.63652174 C83.5422074,7.7529097 85.2153846,7.309699 87.2292977,7.309699 C89.4010702,7.309699 91.4430769,7.79785953 93.3574582,8.77110368 L91.947291,12.5648161 C90.8841472,11.6462876 89.4010702,11.1890301 87.4979264,11.1890301 C85.7966555,11.1890301 84.946087,11.8648829 84.946087,13.2197993 C84.946087,13.9364548 85.5392642,14.6125753 86.7264214,15.2507023 C87.0953846,15.4636789 87.9789967,15.8438796 89.379398,16.3922408 C92.8264883,17.7470234 94.5488963,19.8619398 94.5488963,22.7383278 C94.5488963,24.8533779 93.7095652,26.4648829 92.0307692,27.572709 C90.5981271,28.5026087 88.7628094,28.9654849 86.5245485,28.9654849 C85.147291,28.9654849 84.0113712,28.8420067 83.1158528,28.5966555 C82.2983278,28.3737793 81.2469565,27.9205351 79.9594649,27.237592 L79.9594649,27.237592 L79.9594649,27.237592 Z" id="Fill-40" fill="#1A1919"></path>
                    <polygon id="Fill-41" fill="#F9C924" points="42.3210702 0.474381271 23.4963211 0.474381271 32.9083612 14.0751839 42.3210702 0.474381271"></polygon>
                </g>
            </g>
        </g>
    </g>
</svg>