<?xml version="1.0" encoding="UTF-8"?>
<svg width="125px" height="44px" viewBox="0 0 125 44" version="1.1" xmlns="http://www.w3.org/2000/svg" xmlns:xlink="http://www.w3.org/1999/xlink">
    <!-- Generator: Sketch 52.5 (67469) - http://www.bohemiancoding.com/sketch -->
    <title>bankkard Combo@2x</title>
    <desc>Created with Sketch.</desc>
    <g id="bankkard-Combo" stroke="none" stroke-width="1" fill="none" fillRule="evenodd">
        <path d="M116.149814,35.5182501 L116.149814,35.3747411 C116.135046,32.9041978 117.948353,31.0553125 120.421102,31.0398675 C122.875873,31.0282839 124.691106,32.8243991 124.705232,35.3129614 L124.705874,35.4545398 C124.718716,37.9283007 122.906052,39.759167 120.43266,39.7739684 C117.979174,39.7861956 116.16394,38.0048818 116.149814,35.5182501 Z M108.348229,38.3974401 L108.355292,39.6664975 L106.375679,39.6767941 L106.311469,28.2333973 L108.291723,28.2231007 L108.316765,32.6133185 C108.890166,31.8037474 109.692798,31.1003601 111.026452,31.0919941 C112.885348,31.0823411 114.64536,32.4839673 114.658844,35.3193968 L114.660771,35.5414175 C114.676823,38.3626891 112.950843,39.7997099 111.073968,39.8087195 C109.722977,39.8183725 108.913282,39.1387962 108.348229,38.3974401 Z M91.6579722,31.358419 L93.6382265,31.3487659 L93.6440054,32.5676273 C94.1846585,31.8185488 94.8999644,31.1820895 96.1251023,31.1769412 C97.2661243,31.1698623 98.0918724,31.687267 98.5362096,32.5084218 C99.1641891,31.7438984 99.9995688,31.1544173 101.246538,31.1466949 C102.963529,31.1376854 104.091067,32.1602676 104.103267,34.0638537 L104.132162,39.6890213 L102.151907,39.699318 L102.123013,34.5960598 C102.11595,33.3919998 101.552823,32.7619758 100.535085,32.7696983 C99.57,32.7716289 98.8726731,33.4409087 98.878452,34.6314544 L98.908631,39.7192676 L96.9264503,39.7289207 L96.900124,34.6108612 C96.8924187,33.4222461 96.3106709,32.7890045 95.3288911,32.7941528 C94.3291323,32.8025188 93.6491423,33.5187768 93.6562054,34.675215 L93.683816,39.7462962 L91.7035617,39.7565929 L91.6579722,31.358419 Z M81.2513632,35.7100245 L81.2494369,35.5658719 C81.2359527,33.0959722 83.0479753,31.2470869 85.5213669,31.2335726 C87.9754953,31.2219889 89.7926548,33.0155299 89.8067811,35.5040922 L89.8074232,35.6488883 C89.8196232,38.1213622 88.0076006,39.952872 85.5335669,39.9657428 C83.0807227,39.9799006 81.2661317,38.1985868 81.2513632,35.7100245 Z M70.7792595,34.389484 L70.7792595,34.2768648 C70.75807,30.9175953 73.0619457,28.6092237 76.2345905,28.5918481 C77.9502973,28.5815515 79.0964561,29.1292025 80.0987833,29.9503573 L78.8800665,31.3661414 C78.1557711,30.7663638 77.3473599,30.2959374 76.2448642,30.3010857 C74.314052,30.3139564 72.8673876,31.90607 72.881514,34.2678553 L72.881514,34.329635 C72.8962824,36.7409727 74.3589994,38.3009094 76.2878853,38.2906128 C77.4622968,38.2835339 78.2296133,37.7860788 78.9988561,37.1187297 L80.1963834,38.4103109 C79.1330562,39.4161611 77.8918656,39.9927714 76.1922115,39.9998503 C73.0542404,40.0210871 70.7978806,37.7809305 70.7792595,34.389484 Z M58.3776921,19.9359372 L61.393021,16.9145252 L66.5073938,24.9169231 L61.4874105,24.9169231 L58.3776921,19.9359372 Z M77.1072765,19.9359372 L80.1219633,16.9145252 L85.2363361,24.9169231 L80.2176371,24.9169231 L77.1072765,19.9359372 Z M84.9993991,4 L90.6987303,4 L69.7859861,24.9619707 L69.7859861,8.00152071 L73.6623789,8.00152071 L73.6623789,15.3642416 L84.9993991,4 Z M66.2993515,4 L71.9993248,4 L51.0846543,24.9619707 L51.0846543,8.00152071 L54.9629734,8.00152071 L54.9629734,15.3642416 L66.2993515,4 Z M96.9817357,7.92172197 L101.168908,7.92172197 L101.168908,24.9169231 L96.9817357,24.9169231 L96.9817357,22.9258158 C95.6012082,24.3892217 94.1147332,25.1234988 92.5248792,25.1234988 C90.5176564,25.1234988 88.8590971,24.2997699 87.5459907,22.6542426 C86.2444423,20.9758949 85.593347,18.8779603 85.593347,16.3643 C85.593347,13.898905 86.2444423,11.8415133 87.5459907,10.1953425 C88.8488234,8.54917174 90.4804143,7.81489462 92.4349844,7.72608635 C94.9578181,7.610893 96.3274298,8.59100173 96.9817357,10.0910893 L96.9817357,7.92172197 Z M113.72015,7.8078157 C113.311129,9.0163805 113.16216,10.2957345 112.89376,11.5429116 L111.020095,11.5229619 C110.174442,11.5351891 109.683873,11.7726547 109.163767,12.273971 C108.578167,12.8608779 108.286651,13.6543605 108.286651,14.6550625 L108.286651,24.898904 L104.054531,24.898904 L104.054531,7.90177228 L108.187766,7.90177228 L108.187766,9.53185462 C109.206788,8.31556736 110.62841,7.70613666 112.451349,7.70613666 C112.871928,7.70613666 113.299571,7.74088773 113.72015,7.8078157 Z M124.714286,24.898904 L122.401421,24.898904 C120.796156,24.898904 119.548544,24.3866476 118.65987,23.3640653 C117.879069,22.4734084 117.487385,21.3639485 117.487385,20.0376162 L117.487385,11.6214232 L115.005004,11.6214232 L115.69912,7.90756413 L117.487385,7.90756413 L117.487385,4 L121.718862,4 L121.718862,7.90756413 L124.714286,7.90756413 L124.714286,11.6214232 L121.718862,11.6214232 L121.718862,19.7756961 C121.718862,20.7989219 122.207505,21.3086042 123.182863,21.3086042 L124.714286,21.3086042 L124.714286,24.898904 Z M27.5315709,7.92172197 L31.7174587,7.92172197 L31.7174587,24.9169231 L27.5315709,24.9169231 L27.5315709,22.9258158 C26.1497592,24.3892217 24.6658527,25.1234988 23.0753566,25.1234988 C21.0668496,25.1234988 19.4082903,24.2997699 18.0964681,22.6542426 C16.7929933,20.9758949 16.1425401,18.8779603 16.1425401,16.3643 C16.1425401,13.898905 16.7929933,11.8415133 18.0964681,10.1953425 C19.3967324,8.54917174 21.0283233,7.81489462 22.9848197,7.72608635 C25.5082955,7.610893 26.8785493,8.59100173 27.5315709,10.0910893 L27.5315709,7.92172197 Z M48.661989,24.9169231 L44.4311538,24.9169231 L44.4311538,14.6421917 C44.4311538,13.5745618 44.1267957,12.7714261 43.521932,12.2269927 C43.0204474,11.7707241 42.39311,11.5429116 41.6322146,11.5429116 C40.8526981,11.5429116 40.2105923,11.7707241 39.7116761,12.2269927 C39.1048861,12.7714261 38.8011701,13.5745618 38.8011701,14.6421917 L38.8011701,24.9169231 L34.5703349,24.9169231 L34.5703349,7.92172197 L38.7022858,7.92172197 L38.7022858,9.48680694 C39.8099183,8.31234967 41.2199827,7.72608635 42.9356894,7.72608635 C44.6051645,7.72608635 45.9407446,8.2286897 46.9372928,9.22746104 C48.0866622,10.380038 48.661989,11.9908142 48.661989,14.0552848 L48.661989,24.9169231 Z M14.1911806,16.4048429 C14.1911806,18.1436832 14.1166963,19.4474917 13.9638751,20.3181989 C13.7243696,21.7320524 13.2267376,22.8189884 12.4671265,23.5802942 C11.444894,24.6028764 10.0688613,25.1132022 8.33389135,25.1132022 C6.59827933,25.1132022 5.18628865,24.5166423 4.10241404,23.3190176 L4.10241404,24.9169231 L0,24.9169231 L0,4.02123676 L4.23147731,4.02123676 L4.23147731,9.42309666 C5.25114134,8.29239999 6.61754251,7.72608635 8.33389135,7.72608635 C10.0688613,7.72608635 11.444894,8.23769924 12.4671265,9.25835087 C13.2267376,10.0196566 13.7243696,11.1072362 13.9638751,12.5217332 C14.1166963,13.3911534 14.1911806,14.6853088 14.1911806,16.4048429 Z M122.723693,35.4493915 L122.723051,35.3547914 C122.71342,33.7845581 121.745124,32.6178233 120.394134,32.6249022 C119.009111,32.6326247 118.121721,33.7948547 118.131353,35.365088 L118.131353,35.4596881 C118.139058,37.0273472 119.10928,38.210814 120.461555,38.2037351 C121.845935,38.1966562 122.733967,37.0196248 122.723693,35.4493915 Z M112.66318,35.5214678 L112.661253,35.3805329 C112.652906,33.6976804 111.683968,32.6750982 110.490294,32.679603 C109.299187,32.6879689 108.288513,33.7382233 108.296218,35.3876118 L108.296218,35.5459222 C108.307134,37.1933801 109.331935,38.2339814 110.521757,38.2288331 C111.73341,38.2223977 112.674095,37.200459 112.66318,35.5214678 Z M87.8239583,35.6430965 L87.8233162,35.5459222 C87.8149689,33.9789066 86.8453891,32.8115283 85.4956827,32.8192507 C84.1093762,32.8269732 83.2232702,33.9879162 83.2316176,35.5562188 L83.2316176,35.650819 C83.2406071,37.2210522 84.2108289,38.4051626 85.5618196,38.3974401 C86.9474839,38.3903612 87.8335899,37.2107556 87.8239583,35.6430965 Z M96.7679144,16.4048429 C96.7679144,14.7940667 96.5688616,13.6427768 96.1713981,12.9458249 C95.6673451,12.0107639 94.7016179,11.5429116 93.2722904,11.5429116 C91.8416786,11.5429116 90.8746673,12.0107639 90.3718984,12.9458249 C89.9744349,13.6427768 89.7760242,14.7940667 89.7760242,16.4048429 C89.7760242,18.0342817 89.9744349,19.1984424 90.3718984,19.8928201 C90.8746673,20.8285247 91.8416786,21.2957334 93.2722904,21.2957334 C94.7016179,21.2957334 95.6673451,20.8285247 96.1713981,19.8928201 C96.5688616,19.1984424 96.7679144,18.0342817 96.7679144,16.4048429 Z M27.3171076,16.4048429 C27.3171076,14.7940667 27.1186969,13.6427768 26.7225176,12.9458249 C26.2184646,12.0107639 25.2514532,11.5429116 23.8208414,11.5429116 C22.3915139,11.5429116 21.4257868,12.0107639 20.9217337,12.9458249 C20.5255544,13.6427768 20.3258595,14.7940667 20.3258595,16.4048429 C20.3258595,18.0342817 20.5255544,19.1984424 20.9217337,19.8928201 C21.4257868,20.8285247 22.3915139,21.2957334 23.8208414,21.2957334 C25.2514532,21.2957334 26.2184646,20.8285247 26.7225176,19.8928201 C27.1186969,19.1984424 27.3171076,18.0342817 27.3171076,16.4048429 Z M9.96098747,16.4048429 C9.96098747,14.7940667 9.79660839,13.6427768 9.47106074,12.9458249 C9.05947091,12.0107639 8.26711234,11.5429116 7.09526923,11.5429116 C5.92342612,11.5429116 5.13170966,12.0107639 4.72011983,12.9458249 C4.39457218,13.6427768 4.23147731,14.7940667 4.23147731,16.4048429 C4.23147731,18.0342817 4.39457218,19.1984424 4.72011983,19.8928201 C5.13170966,20.8285247 5.92342612,21.2957334 7.09526923,21.2957334 C8.26711234,21.2957334 9.05947091,20.8285247 9.47106074,19.8928201 C9.79660839,19.1984424 9.96098747,18.0342817 9.96098747,16.4048429 Z" id="Combined-Shape" fill="#E20613"></path>
    </g>
</svg>