<?xml version="1.0" encoding="UTF-8"?>
<svg width="168px" height="44px" viewBox="0 0 168 44" version="1.1" xmlns="http://www.w3.org/2000/svg" xmlns:xlink="http://www.w3.org/1999/xlink">
    <!-- Generator: Sketch 46.2 (44496) - http://www.bohemiancoding.com/sketch -->
    <title>Bonus</title>
    <desc>Created with Sketch.</desc>
    <defs></defs>
    <g id="Page-1" stroke="none" stroke-width="1" fill="none" fillRule="evenodd">
        <g id="Bonus">
            <rect id="Rectangle-Copy" fill="#D8D8D8" opacity="0" x="0" y="0" width="168" height="44"></rect>
            <g id="bonus_Logo" transform="translate(0.000000, 9.000000)">
                <g id="Group">
                    <path d="M22.8690167,9.41171482 L14.7644845,9.41171482 C14.7644845,9.41171482 14.7511264,9.41171482 14.7434932,9.41076067 C14.7434932,9.40408163 14.7415849,9.39167771 14.7415849,9.39167771 L14.7415849,1.28809966 C14.7415849,0.665041081 14.3217599,0.245216008 13.6977472,0.245216008 L10.1798039,0.245216008 C9.52525842,0.245216008 9.13501193,0.637370792 9.13501193,1.28809966 L9.13501193,9.39167771 C9.13501193,9.39167771 9.13501193,9.40408163 9.13405778,9.41076067 C9.1245163,9.41076067 9.11115823,9.41171482 9.11115823,9.41171482 L1.0619666,9.41171482 C0.408375298,9.41171482 0.0190829579,9.80291545 0.0190829579,10.4574609 L0.0190829579,13.9801749 C0.0190829579,14.6318579 0.408375298,15.0230586 1.0619666,15.0230586 L9.11115823,15.0230586 C9.11115823,15.0230586 9.122608,15.0230586 9.13214948,15.0240127 C9.13405778,15.0354625 9.13501193,15.0488206 9.13501193,15.0488206 L9.13501193,23.0961039 C9.13501193,23.7487411 9.52525842,24.1389875 10.1798039,24.1389875 L13.6977472,24.1389875 C14.3513385,24.1389875 14.7415849,23.7487411 14.7415849,23.0961039 L14.7415849,15.0488206 C14.7415849,15.0488206 14.7434932,15.0326001 14.7434932,15.0230586 L14.7644845,15.0230586 L22.8690167,15.0230586 C23.522608,15.0230586 23.9119003,14.6318579 23.9119003,13.9801749 L23.9119003,10.4574609 C23.9119003,9.83153989 23.4930294,9.41171482 22.8690167,9.41171482" id="Fill-2" fill="#FBD034"></path>
                    <path d="M37.5170951,18.0543864 C37.5170951,19.6077392 36.3797509,20.7832494 34.8263981,20.7832494 C33.2730453,20.7832494 32.0994434,19.5705274 32.0994434,18.0543864 L32.0994434,14.0784522 C32.0994434,12.5632653 33.2348794,11.386801 34.8263981,11.386801 C36.3797509,11.386801 37.5170951,12.5632653 37.5170951,14.0784522 L37.5170951,18.0543864 L37.5170951,18.0543864 Z M41.8727803,18.0543864 L41.8727803,14.0784522 C41.8727803,10.2504108 39.032282,7.41086668 35.3941161,7.41086668 C33.7653856,7.41086668 32.8188709,8.16750596 32.3637424,8.16750596 C32.212987,8.16750596 32.0994434,8.0167506 32.0994434,7.75054333 L32.0994434,1.27378744 C32.0994434,1.00853432 31.948688,0.894036576 31.7206467,0.894036576 L28.1607209,0.894036576 C27.8945136,0.894036576 27.7809701,1.00853432 27.7809701,1.27378744 L27.7809701,24.3813411 C27.7809701,24.6446859 27.8945136,24.7601378 28.1607209,24.7601378 L31.3790618,24.7601378 C31.909568,24.7601378 31.6834349,24.0025444 32.0240657,24.0025444 C32.4782401,24.0025444 33.3493772,24.7601378 35.0544394,24.7601378 C38.9941161,24.7601378 41.8727803,22.0312748 41.8727803,18.0543864 L41.8727803,18.0543864 Z" id="Fill-3" fill="#005E3C"></path>
                    <path d="M53.0086403,18.4331831 C53.0086403,19.9502783 51.8340843,21.161092 50.3198516,21.161092 C48.729287,21.161092 47.5928969,19.9502783 47.5928969,18.4331831 L47.5928969,13.7349589 C47.5928969,12.2216804 48.729287,11.0089584 50.3198516,11.0089584 C51.8340843,11.0089584 53.0086403,12.2216804 53.0086403,13.7349589 L53.0086403,18.4331831 L53.0086403,18.4331831 Z M57.3662338,18.4331831 L57.3662338,13.7349589 C57.3662338,9.72085873 54.5629473,7.03111582 50.3198516,7.03111582 C46.0395441,7.03111582 43.2362576,9.72085873 43.2362576,13.7349589 L43.2362576,18.4331831 C43.2362576,22.4501458 46.0395441,25.1398887 50.3198516,25.1398887 C54.5629473,25.1398887 57.3662338,22.4501458 57.3662338,18.4331831 L57.3662338,18.4331831 Z" id="Fill-4" fill="#005E3C"></path>
                    <path d="M73.0113968,24.7601378 L69.4133051,24.7601378 C69.1480519,24.7601378 69.0345083,24.6446859 69.0345083,24.3813411 L69.0345083,14.0784522 C69.0345083,12.5632653 67.8981182,11.386801 66.3457196,11.386801 C64.7522926,11.386801 63.6178108,12.5632653 63.6178108,14.0784522 L63.6178108,24.3813411 C63.6178108,24.6446859 63.5042672,24.7601378 63.2380599,24.7601378 L59.6781341,24.7601378 C59.4109727,24.7601378 59.2993374,24.6446859 59.2993374,24.3813411 L59.2993374,7.78870925 C59.2993374,7.52441028 59.4109727,7.41086668 59.6781341,7.41086668 L62.8974291,7.41086668 C63.4661012,7.41086668 63.2380599,8.16750596 63.5424331,8.16750596 C63.9966075,8.16750596 64.9040021,7.41086668 66.6472303,7.41086668 C70.5115293,7.41086668 73.3901935,10.1359131 73.3901935,14.0784522 L73.3901935,24.3813411 C73.3901935,24.6446859 73.2766499,24.7601378 73.0113968,24.7601378" id="Fill-5" fill="#005E3C"></path>
                    <path d="M89.2261861,24.7601378 L86.0049828,24.7601378 C85.4754307,24.7601378 85.7025179,24.0025444 85.3609329,24.0025444 C84.9077127,24.0025444 83.9965015,24.7601378 82.2914392,24.7601378 C78.3527167,24.7601378 75.5122184,22.0312748 75.5122184,18.0543864 L75.5122184,7.78870925 C75.5122184,7.52441028 75.6238537,7.41086668 75.8919693,7.41086668 L79.490061,7.41086668 C79.7171482,7.41086668 79.8688577,7.52441028 79.8688577,7.78870925 L79.8688577,18.0543864 C79.8688577,19.6077392 81.006202,20.7832494 82.5576464,20.7832494 C84.1100451,20.7832494 85.2846011,19.5705274 85.2846011,18.0543864 L85.2846011,7.78870925 C85.2846011,7.52441028 85.3990989,7.41086668 85.664352,7.41086668 L89.2261861,7.41086668 C89.4523191,7.41086668 89.6049828,7.52441028 89.6049828,7.78870925 L89.6049828,24.3813411 C89.6049828,24.6446859 89.490485,24.7601378 89.2261861,24.7601378" id="Fill-6" fill="#005E3C"></path>
                    <path d="M103.430586,8.32016963 C104.832229,9.34301617 105.6652,10.9717466 105.6652,11.4249669 C105.6652,11.5404188 105.590777,11.6530082 105.439067,11.7283859 L102.332362,13.2435728 C102.256984,13.2826928 102.181606,13.2826928 102.14344,13.2826928 C101.990777,13.2826928 101.952611,13.2073151 101.840021,13.0546515 C101.043308,11.8810496 100.628253,10.8963689 99.0749006,10.8963689 L97.9766764,10.8963689 C96.6122449,10.8963689 95.8909091,11.386801 95.8909091,12.335224 C95.8909091,13.8876226 97.9766764,13.5479459 101.083382,14.3799629 C104.149059,15.2148423 105.590777,16.6164856 105.590777,19.116353 C105.590777,22.6762788 103.051789,25.1398887 99.0749006,25.1398887 L97.9766764,25.1398887 C95.8536973,25.1398887 94.2249669,24.5320965 93.051365,23.284071 C91.8777631,22.0713491 91.4226345,21.0103366 91.4226345,20.6697058 C91.4226345,20.5552081 91.4980122,20.4798304 91.6487676,20.4054068 L94.7564272,18.89022 C94.8318049,18.8510999 94.8699708,18.8510999 94.9463027,18.8510999 C95.0588921,18.8510999 95.135224,18.9646435 95.2478134,19.116353 C96.0054068,20.3653326 96.496793,21.2755897 97.9766764,21.2755897 L99.0749006,21.2755897 C100.438378,21.2755897 101.271349,20.593374 101.271349,19.6468593 C101.271349,18.1316724 99.1502783,18.4732574 96.0445269,17.677498 C93.013199,16.9179963 91.6106016,15.4810496 91.6106016,12.902942 C91.6106016,9.45560562 94.2249669,7.03111582 97.9766764,7.03111582 L99.0749006,7.03111582 C100.853432,7.03111582 102.256984,7.4490326 103.430586,8.32016963" id="Fill-7" fill="#005E3C"></path>
                    <path d="M124.932309,20.3939571 L121.632865,18.7633183 C121.556533,18.7261065 121.519321,18.7261065 121.44299,18.7261065 C121.254068,18.7261065 121.101405,18.9913597 120.874318,19.4464882 C120.229314,20.6601643 119.547098,21.2670024 118.446965,21.2670024 C116.854492,21.2670024 115.716194,20.0533263 115.716194,18.5362311 L115.716194,13.8341903 C115.716194,12.316141 116.854492,11.103419 118.446965,11.103419 C119.547098,11.103419 120.267479,11.7102571 120.912483,12.9239332 C121.139571,13.3408958 121.214948,13.567983 121.44299,13.567983 C121.481156,13.567983 121.556533,13.567983 121.632865,13.5307713 L124.932309,11.8991784 C125.084018,11.8238007 125.159396,11.7102571 125.159396,11.5957593 C125.159396,11.1415849 124.249139,9.47278028 122.770209,8.37264776 C121.594699,7.50055659 120.192102,7.12080572 118.446965,7.12080572 C114.161887,7.12080572 111.355738,9.81436523 111.355738,13.8341903 L111.355738,18.5362311 C111.355738,22.5570103 114.161887,25.2496157 118.446965,25.2496157 C120.570898,25.2496157 122.201537,24.6427776 123.30167,23.5044792 C124.590724,22.1390936 125.159396,21.1152929 125.159396,20.6983302 C125.159396,20.5838325 125.084018,20.4702889 124.932309,20.3939571" id="Fill-8" fill="#005E3C"></path>
                    <path d="M140.00212,24.490114 L140.00212,13.7960244 C140.00212,9.77524516 137.195017,7.12080572 132.909939,7.12080572 C130.862338,7.12080572 129.231699,7.6522661 128.0934,8.75144447 C126.804347,10.0032865 126.272886,11.2169626 126.272886,11.5203817 C126.272886,11.5957593 126.349218,11.7102571 126.500928,11.7856348 L129.610496,13.4162735 C129.685873,13.4544394 129.762205,13.4916512 129.838537,13.4916512 C130.141956,13.4916512 130.293666,12.9239332 130.824172,12.2407633 C131.392844,11.5203817 132.226769,11.103419 132.909939,11.103419 C134.464246,11.103419 135.489001,12.0890538 135.64071,13.6443149 L135.678876,14.0994434 L135.678876,14.1757752 C135.678876,14.4019083 135.526213,14.516406 135.299125,14.516406 L131.658097,14.516406 C128.510363,14.516406 126.311052,16.6021733 126.311052,19.5981977 L126.311052,19.7880732 C126.311052,22.7077657 128.510363,24.8698648 131.658097,24.8698648 L133.099814,24.8698648 C134.464246,24.8698648 135.337291,24.148529 135.754254,24.148529 C136.095839,24.148529 135.830586,24.8698648 136.398304,24.8698648 L139.622369,24.8698648 C139.888577,24.8698648 140.00212,24.7563212 140.00212,24.490114 L140.00212,24.490114 Z M135.678876,18.1564803 C135.64071,18.574397 135.64071,18.7633183 135.64071,18.7633183 C135.147416,20.1668699 134.275325,20.8882057 133.099814,20.8882057 L131.658097,20.8882057 C131.051259,20.8882057 130.634296,20.432123 130.634296,19.7880732 L130.634296,19.2184469 C130.634296,18.6497747 131.089425,18.1564803 131.658097,18.1564803 L135.678876,18.1564803 L135.678876,18.1564803 Z" id="Fill-9" fill="#005E3C"></path>
                    <path d="M152.045375,11.8619666 L152.045375,8.18277233 C152.045375,7.80302147 151.248662,7.50055659 149.922396,7.50055659 C148.935807,7.50055659 148.02555,7.8793533 147.039915,8.63790087 L146.812828,8.75144447 C146.584787,8.71327856 146.470289,8.59973496 146.470289,8.37264776 L146.470289,7.84118738 C146.470289,7.57593427 146.356745,7.50055659 146.092446,7.50055659 L142.868381,7.50055659 C142.602173,7.50055659 142.489584,7.61410019 142.489584,7.8793533 L142.489584,24.490114 C142.489584,24.7563212 142.602173,24.8698648 142.868381,24.8698648 L146.432123,24.8698648 C146.69833,24.8698648 146.812828,24.7563212 146.812828,24.490114 L146.812828,14.1757752 C146.812828,12.6958919 147.950172,11.5203817 149.429102,11.5203817 C150.491068,11.5203817 151.286827,12.2789292 151.780122,12.2789292 C151.931831,12.2789292 152.045375,12.1272197 152.045375,11.8619666" id="Fill-10" fill="#005E3C"></path>
                    <path d="M167.001643,24.490114 L167.001643,1.35584416 C167.001643,1.09059104 166.850888,0.97800159 166.622847,0.97800159 L163.019984,0.97800159 C162.753777,0.97800159 162.640233,1.09059104 162.640233,1.35584416 L162.640233,7.84118738 C162.640233,8.10739465 162.52669,8.25815001 162.37498,8.25815001 C161.958017,8.25815001 160.971429,7.50055659 159.341744,7.50055659 C155.700716,7.50055659 152.855447,10.3448715 152.855447,14.1757752 L152.855447,18.1564803 C152.855447,22.1390936 155.737927,24.8698648 159.682375,24.8698648 C161.389345,24.8698648 162.298648,24.1122714 162.753777,24.1122714 C163.133528,24.1122714 162.830109,24.8698648 163.398781,24.8698648 L166.622847,24.8698648 C166.8881,24.8698648 167.001643,24.7563212 167.001643,24.490114 L167.001643,24.490114 Z M162.640233,18.1564803 C162.640233,19.7117413 161.501935,20.8882057 159.947628,20.8882057 C158.355155,20.8882057 157.216857,19.7117413 157.216857,18.1564803 L157.216857,14.1757752 C157.216857,12.6586801 158.355155,11.4831699 159.947628,11.4831699 C161.501935,11.4831699 162.640233,12.6586801 162.640233,14.1757752 L162.640233,18.1564803 L162.640233,18.1564803 Z" id="Fill-11" fill="#005E3C"></path>
                </g>
            </g>
        </g>
    </g>
</svg>