<?xml version="1.0" encoding="UTF-8"?>
<svg width="131px" height="44px" viewBox="0 0 131 44" version="1.1" xmlns="http://www.w3.org/2000/svg" xmlns:xlink="http://www.w3.org/1999/xlink">
    <!-- Generator: Sketch 46.2 (44496) - http://www.bohemiancoding.com/sketch -->
    <title>Maximum</title>
    <desc>Created with Sketch.</desc>
    <defs></defs>
    <g id="Page-1" stroke="none" stroke-width="1" fill="none" fillRule="evenodd">
        <g id="Maximum">
            <rect id="Rectangle-Copy" fill="#D8D8D8" opacity="0" x="0" y="0" width="131" height="44"></rect>
            <g id="maximum_logo" transform="translate(0.000000, 5.000000)" fill="#D8127D">
                <g id="Maximum_Card">
                    <path d="M5.60319232,22.8999996 C5.32857694,24.7968073 5.12000001,26.2385381 5.12000001,26.2385381 L0.360000014,26.2385381 C0.360000014,26.2385381 0.570538476,24.8131535 0.852346168,22.9045765 L5.60319232,22.8999996 L5.60319232,22.8999996 Z M14.8675385,22.8999996 C14.5824616,24.8157688 14.3719231,26.2385381 14.3719231,26.2385381 L9.63415386,26.2385381 C9.63415386,26.2385381 9.84600001,24.8000765 10.1251923,22.8999996 L14.8675385,22.8999996 L14.8675385,22.8999996 Z M24.1900769,22.8999996 C23.9108846,24.8079227 23.7023077,26.2385381 23.7023077,26.2385381 L18.9423077,26.2385381 C18.9423077,26.2385381 19.1535,24.7928842 19.4294231,22.9019612 L24.1900769,22.8999996 L24.1900769,22.8999996 Z M30.3878846,22.8999996 C30.7952308,23.2216919 31.368,23.4439996 32.1519616,23.4963073 C33.2249231,23.5682304 34.2593077,23.2314996 34.9903077,22.9032688 L40.2328462,22.8999996 C40.1439231,23.5028458 40.089,23.8755381 40.089,23.8755381 L38.8846154,24.8118458 C37.3912308,25.9044227 35.3401154,26.506615 32.8653077,26.7289227 C30.3905,26.9518842 27.2023462,26.3052304 25.9986154,23.5858842 C25.8998846,23.3622688 25.8135769,23.1334227 25.741,22.9019612 L30.3878846,22.8999996 L30.3878846,22.8999996 Z M46.5849616,22.8999996 C44.8110769,25.0897304 42.6082692,27.8103842 42.6082692,27.8103842 L41.0253077,23.9422304 C41.0253077,23.9422304 41.3241154,23.5322688 41.7844231,22.8999996 L46.5849616,22.8999996 L46.5849616,22.8999996 Z M56.9556154,22.8999996 C57.4015385,23.5623458 57.7016539,24.0089227 57.7016539,24.0089227 L57.8625,22.8999996 L62.3485385,22.8999996 L61.8594616,26.2496535 L59.2290385,26.2496535 L61.5586923,29.7163458 L56.9660769,33.3615381 C56.9660769,33.3615381 53.1816154,26.761615 50.9676923,22.9032688 L56.9556154,22.8999996 L56.9556154,22.8999996 Z M68.8307692,22.8999996 C68.5555,24.7968073 68.3469231,26.2385381 68.3469231,26.2385381 L63.5875769,26.2385381 C63.5875769,26.2385381 63.7981154,24.8131535 64.0799231,22.9045765 L68.8307692,22.8999996 L68.8307692,22.8999996 Z M78.0951154,22.8999996 C77.8100385,24.8157688 77.5995,26.2385381 77.5995,26.2385381 L72.8617308,26.2385381 C72.8617308,26.2385381 73.0735769,24.8000765 73.3527692,22.8999996 L78.0951154,22.8999996 L78.0951154,22.8999996 Z M87.417,22.8999996 C87.1384616,24.8079227 86.9298846,26.2385381 86.9298846,26.2385381 L82.1698846,26.2385381 C82.1698846,26.2385381 82.3810769,24.7928842 82.657,22.9019612 L87.417,22.8999996 L87.417,22.8999996 Z M94.4085769,22.8999996 C94.5386923,23.1929227 94.7302692,23.4315765 95.0003077,23.5629996 C95.8254616,23.9644612 97.1632308,23.8977688 97.7203077,23.4073842 C97.8975,23.251115 98.0707692,23.0948458 98.2335769,22.9045765 L103.214577,22.8999996 C102.854962,23.7336535 102.350192,24.534615 101.666269,25.0792688 C100.239577,26.2163073 98.7017308,26.7962688 94.9780769,26.7962688 C91.2550769,26.7962688 89.8055,24.5666535 89.5831923,23.1177304 C89.5720769,23.0464612 89.5616154,22.9751919 89.5524616,22.9045765 L94.4085769,22.8999996 L94.4085769,22.8999996 Z M110.030923,22.8999996 C109.756308,24.7968073 109.547731,26.2385381 109.547731,26.2385381 L104.787731,26.2385381 C104.787731,26.2385381 104.998269,24.8131535 105.280077,22.9045765 L110.030923,22.8999996 L110.030923,22.8999996 Z M119.295269,22.8999996 C119.010192,24.8157688 118.799654,26.2385381 118.799654,26.2385381 L114.062538,26.2385381 C114.062538,26.2385381 114.273731,24.8000765 114.552923,22.8999996 L119.295269,22.8999996 L119.295269,22.8999996 Z M128.617808,22.8999996 C128.338615,24.8079227 128.130038,26.2385381 128.130038,26.2385381 L123.370038,26.2385381 C123.370038,26.2385381 123.581231,24.7928842 123.857154,22.9019612 L128.617808,22.8999996 L128.617808,22.8999996 Z" id="Fill-1"></path>
                    <path d="M0.85,22.9730048 C1.38353846,19.3650818 2.17273077,14.021851 2.27473077,13.3359664 C2.431,12.2885048 3.27838462,10.3707741 4.60438462,9.31219715 C5.93103846,8.25296638 7.62580769,7.51738946 9.67692308,7.51738946 C11.7280385,7.51738946 12.9317692,8.01888946 13.6228846,8.39812022 C14.314,8.77669715 14.7599231,9.25596638 14.7599231,9.25596638 C14.7599231,9.25596638 15.3281154,8.69888946 16.4429231,8.24185099 C17.5577308,7.78481253 18.3266538,7.50627407 20.1325769,7.50627407 C21.9385,7.50627407 23.6221538,8.08558176 24.3577308,8.8100433 C25.0933077,9.53515869 25.3385,9.96996638 25.6170385,11.2292741 C25.6170385,11.2292741 25.7621923,12.143351 25.5725769,13.4588895 C25.4503077,14.310851 24.7003462,19.4540048 24.1877308,22.9703895 L19.4270769,22.9730048 C19.9246538,19.5645048 20.6327692,14.7070818 20.6903077,14.2840433 C20.7792308,13.6262741 20.9688462,12.2551587 20.5118077,11.6529664 C20.0547692,11.0514279 19.2302692,10.8951587 18.6058462,10.9396202 C17.9814231,10.9840818 16.6881154,11.1736971 16.3428846,13.2359279 C16.1212308,14.5566971 15.3738846,19.5507741 14.8651923,22.9703895 L10.1228462,22.9730048 C10.6433077,19.427851 11.3985,14.2775048 11.4488462,13.8714664 C11.5273077,13.2470433 11.6384615,11.7752356 10.8028462,11.2403895 C9.96657692,10.7055433 8.46142308,10.8284664 7.84876923,11.6751971 C7.23546154,12.5225818 7.10142308,12.9351587 6.88957692,14.2278125 C6.75553846,15.0483895 6.07815385,19.6920048 5.60084615,22.9775818 L0.85,22.9730048 L0.85,22.9730048 Z M25.7386538,22.9730048 C24.9272308,20.3831202 25.7805,17.3440433 28.8503077,15.7885433 C32.1940769,14.0944279 37.2326154,14.183351 37.2326154,14.183351 C37.2326154,14.183351 37.6118462,12.6670818 36.7866923,11.9315048 C35.8680385,11.1122356 34.9140769,11.3744279 32.8407308,11.7085433 C30.7673846,12.0433125 28.4488462,13.0351971 28.4488462,13.0351971 L28.9836923,9.25596638 C28.9836923,9.25596638 30.3881538,8.25296638 33.9110769,7.71812022 C37.4333462,7.18262022 38.6821923,7.85150484 40.2429231,9.01077407 C41.803,10.1706971 41.803,12.1766971 41.6251538,13.4477741 C41.4826154,14.4631971 40.5855385,20.5603125 40.2305,22.9697356 L34.9879615,22.9730048 C35.6235,22.6898895 36.0288846,22.4100433 36.0288846,22.4100433 L36.8089231,17.2825818 C36.8089231,17.2825818 35.7614615,17.3492741 35.0036538,17.4159664 C34.2451923,17.4826587 33.0859231,17.5944664 31.5925385,18.1521971 C30.0985,18.7092741 29.5191923,19.8685433 29.5191923,21.0722741 C29.5191923,21.7516202 29.7506538,22.4806587 30.3855385,22.9769279 L25.7386538,22.9730048 L25.7386538,22.9730048 Z M41.7820769,22.9730048 C43.3035769,20.8846202 46.5891538,16.3743895 46.6748077,16.2455818 C46.7859615,16.0781971 46.8193077,15.6662741 46.6636923,15.3759664 C46.5074231,15.0863125 43.1407692,9.33442792 42.9733846,9.01077407 C42.8066538,8.68777407 42.5948077,8.05223561 42.8955769,6.78181253 C43.1963462,5.51073561 43.9881538,5.13215869 44.3451538,5.07592792 C44.7015,5.02035099 45.0473846,5.15438946 45.4593077,5.78927407 C45.8718846,6.42481253 49.2496538,11.4855818 49.3948077,11.7085433 C49.5393077,11.9315048 49.7733846,11.9981971 49.963,11.7307741 C50.1526154,11.463351 57.0193077,1.99958176 57.3534231,1.5425433 C57.6881923,1.08550484 58.5349231,0.171427917 59.3489615,0.0485048397 C60.163,-0.0737643911 60.7756538,0.0262740704 61.3445,0.449966378 C61.9126923,0.873658686 62.4037308,1.75438946 62.3030385,2.66846638 C62.2023462,3.5825433 61.7008462,4.37369715 60.8985769,5.38846638 C60.0956538,6.40258176 52.8615,15.2092356 52.6718846,15.4204279 C52.4822692,15.6322741 52.4711538,15.9670433 52.5156154,16.2455818 C52.5600769,16.5241202 53.0171154,17.1263125 53.1845,17.3715048 C53.3080769,17.5519664 55.7024615,21.1134664 56.9532692,22.972351 L50.9653462,22.9730048 C50.0741538,21.4220818 49.4373077,20.3131587 49.4052692,20.2588895 C49.2941154,20.0692741 49.1267308,19.801851 48.7592692,20.2700048 C48.6180385,20.4491587 47.6830385,21.6071202 46.5826154,22.9690818 L41.7820769,22.9730048 L41.7820769,22.9730048 Z M57.8601538,22.9730048 L60.0178462,8.07446638 L64.5215385,8.07446638 L62.3461923,22.9736587 L57.8601538,22.9730048 L57.8601538,22.9730048 Z M64.0775769,22.9730048 C64.6111154,19.3650818 65.4003077,14.021851 65.5023077,13.3359664 C65.6585769,12.2885048 66.5059615,10.3707741 67.8319615,9.31219715 C69.1586154,8.25296638 70.8527308,7.51738946 72.9045,7.51738946 C74.9549615,7.51738946 76.1593462,8.01888946 76.8504615,8.39812022 C77.5415769,8.77669715 77.9875,9.25596638 77.9875,9.25596638 C77.9875,9.25596638 78.5556923,8.69888946 79.6705,8.24185099 C80.7853077,7.78481253 81.5542308,7.50627407 83.3601538,7.50627407 C85.1660769,7.50627407 86.8490769,8.08558176 87.5853077,8.8100433 C88.3208846,9.53515869 88.5660769,9.96996638 88.8446154,11.2292741 C88.8446154,11.2292741 88.9897692,12.143351 88.8001538,13.4588895 C88.6772308,14.310851 87.9279231,19.4540048 87.4146538,22.9703895 L82.6546538,22.9730048 C83.1522308,19.5645048 83.8603462,14.7070818 83.9178846,14.2840433 C84.0068077,13.6262741 84.1964231,12.2551587 83.7393846,11.6529664 C83.2823462,11.0514279 82.4571923,10.8951587 81.8327692,10.9396202 C81.209,10.9840818 79.9156923,11.1736971 79.5704615,13.2359279 C79.3488077,14.5566971 78.6014615,19.5507741 78.0927692,22.9703895 L73.3504231,22.9730048 C73.8708846,19.427851 74.6260769,14.2775048 74.6764231,13.8714664 C74.7542308,13.2470433 74.8660385,11.7752356 74.0297692,11.2403895 C73.1941538,10.7055433 71.689,10.8284664 71.0763462,11.6751971 C70.4630385,12.5225818 70.329,12.9351587 70.1171538,14.2278125 C69.9831154,15.0483895 69.3057308,19.6920048 68.8284231,22.9775818 L64.0775769,22.9730048 L64.0775769,22.9730048 Z M89.5501154,22.9730048 C89.3729231,21.603851 89.5291923,20.2628125 89.8260385,18.3973895 C90.1379231,16.4351971 91.375,8.09669715 91.375,8.09669715 L96.1016538,8.09669715 C96.1016538,8.09669715 94.3513077,20.0470433 94.2179231,20.9388895 C94.1276923,21.5384664 94.1388077,22.3695048 94.4062308,22.972351 L89.5501154,22.9730048 L89.5501154,22.9730048 Z M98.2312308,22.9730048 C98.5790769,22.5689279 98.8805,22.0026971 99.0779615,20.9388895 C99.3676154,19.3781587 101.017269,8.07446638 101.017269,8.07446638 L105.677231,8.07446638 C105.677231,8.07446638 104.094269,19.0885048 103.915769,20.4256202 C103.822923,21.1226202 103.603231,22.0674279 103.212231,22.9730048 L98.2312308,22.9730048 L98.2312308,22.9730048 Z M105.277731,22.9730048 C105.811269,19.3650818 106.600462,14.021851 106.702462,13.3359664 C106.858731,12.2885048 107.706115,10.3707741 109.032115,9.31219715 C110.359423,8.25296638 112.053538,7.51738946 114.104654,7.51738946 C116.155769,7.51738946 117.3595,8.01888946 118.050615,8.39812022 C118.741731,8.77669715 119.187654,9.25596638 119.187654,9.25596638 C119.187654,9.25596638 119.7565,8.69888946 120.871308,8.24185099 C121.985462,7.78481253 122.755038,7.50627407 124.560962,7.50627407 C126.366885,7.50627407 128.049885,8.08558176 128.785462,8.8100433 C129.521038,9.53515869 129.766231,9.96996638 130.044769,11.2292741 C130.044769,11.2292741 130.189923,12.143351 130.000962,13.4588895 C129.878038,14.310851 129.128077,19.4540048 128.615462,22.9703895 L123.854808,22.9730048 C124.352385,19.5645048 125.0605,14.7070818 125.118038,14.2840433 C125.206962,13.6262741 125.396577,12.2551587 124.940192,11.6529664 C124.4825,11.0514279 123.658,10.8951587 123.033577,10.9396202 C122.409154,10.9840818 121.1165,11.1736971 120.770615,13.2359279 C120.549615,14.5566971 119.802269,19.5507741 119.292923,22.9703895 L114.550577,22.9730048 C115.071038,19.427851 115.826231,14.2775048 115.877231,13.8714664 C115.955038,13.2470433 116.066192,11.7752356 115.230577,11.2403895 C114.394308,10.7055433 112.889154,10.8284664 112.2765,11.6751971 C111.663192,12.5225818 111.529154,12.9351587 111.317962,14.2278125 C111.183269,15.0483895 110.505885,19.6920048 110.028577,22.9775818 L105.277731,22.9730048 L105.277731,22.9730048 Z M47.9347692,3.83885099 C48.3381923,1.91785099 49.7766538,0.361043301 51.1484231,0.361043301 C52.5201923,0.361043301 53.3048077,1.91785099 52.9013846,3.83885099 C52.4979615,5.75985099 51.0588462,7.31665869 49.6877308,7.31665869 C48.3166154,7.31665869 47.5313462,5.75985099 47.9347692,3.83885099 L47.9347692,3.83885099 Z" id="Fill-2"></path>
                </g>
            </g>
        </g>
    </g>
</svg>