<?xml version="1.0" encoding="UTF-8"?>
<svg width="70px" height="44px" viewBox="0 0 70 44" version="1.1" xmlns="http://www.w3.org/2000/svg" xmlns:xlink="http://www.w3.org/1999/xlink">
    <!-- Generator: Sketch 46.2 (44496) - http://www.bohemiancoding.com/sketch -->
    <title>Paraf</title>
    <desc>Created with Sketch.</desc>
    <defs></defs>
    <g id="Page-1" stroke="none" stroke-width="1" fill="none" fillRule="evenodd">
        <g id="Paraf">
            <rect id="Rectangle-Copy" fill="#D8D8D8" opacity="0" x="0" y="0" width="70" height="44"></rect>
            <g id="paraf_logo" fill="#00A5D3">
                <path d="M66.6017329,35.6338506 L69.2894715,35.6338506 L69.2894715,32.9462506 L66.6017329,32.9462506 L66.6017329,35.6338506 Z M50.997051,24.2491747 C51.0007926,24.5670748 50.9600504,24.9430395 50.8733,25.366121 C50.3867493,27.7488474 49.223102,29.8918321 47.5110977,31.56545 C46.6883545,32.3722566 45.3435844,33.205809 44.519594,33.205809 C44.3072911,33.205809 44.1297715,33.1743516 43.9435214,32.7838361 C43.6903377,32.2525244 43.6403107,31.099409 44.2614215,29.4551699 C44.8519064,27.8817446 45.9128667,26.2747831 47.2487678,24.9286273 C48.3715343,23.7961602 49.6388388,23.2818937 50.3419883,23.2818937 C50.643259,23.2818937 50.9848561,23.2818937 50.997051,24.2464032 L50.997051,24.2491747 Z M31.5883771,22.3280549 C31.567036,22.4620607 31.541676,22.6017483 31.512713,22.744346 C31.0754965,22.5075146 30.776166,22.1783896 30.6195718,21.7557238 C30.4793299,21.3785119 30.5369787,21.0809829 30.7957056,20.8472003 C30.9793227,20.6822913 31.1877454,20.6292156 31.2938969,20.6292156 C31.3196726,20.6292156 31.3394894,20.6325415 31.35113,20.6376689 C31.6295351,20.9084522 31.7570277,21.2731919 31.5883771,22.3280549 L31.5883771,22.3280549 Z M23.4246916,24.1423304 C23.3796535,24.7462574 23.1988079,25.37402 23.0947352,25.6955232 C22.1830243,28.5221179 21.487358,30.0839026 19.0620879,32.1951527 C18.3036454,32.8570058 17.5693155,33.2210527 16.9958759,33.2210527 L16.995183,33.2210527 C16.6382036,33.2210527 16.3629858,33.0744361 16.1555332,32.7708097 C15.8111645,32.268461 15.6041276,31.1771518 16.1558103,29.7576877 C16.9400286,27.7469073 18.8551896,25.4380435 20.7099301,24.2696844 C21.0971197,24.0267555 21.5718912,23.7947744 22.0854647,23.5971608 C22.6566871,23.3752959 22.9995314,23.3287334 23.1860587,23.3287334 C23.2924873,23.3287334 23.3499976,23.3452243 23.3505519,23.3412055 C23.3796535,23.3730787 23.4718085,23.5242683 23.4246916,24.1423304 L23.4246916,24.1423304 Z M67.6406592,19.2863856 C68.9424698,16.6585131 69.6930133,12.4904743 68.7916959,9.8887932 C68.1594988,8.06717299 66.7238209,7.07231476 64.9084368,7.13564534 C61.4380043,7.24304402 60.0964216,11.5813964 59.4517523,13.6649308 C57.8495026,18.8418244 56.8948322,24.4853133 56.567093,30.7036276 C56.4619116,30.7812318 56.3621348,30.8542629 56.251133,30.9369945 C55.6508091,31.386406 54.2781846,32.4128603 53.7277491,32.4499994 C53.6669129,32.3453723 53.5367873,32.0439631 53.4788613,31.3379034 C53.4116505,30.5213963 53.4910562,28.4036329 53.5548025,26.7027149 C53.5948519,25.6576911 53.6282494,24.7558194 53.6270022,24.2257549 L53.626725,24.2257549 C53.626725,24.2210432 53.6270022,24.2164701 53.6270022,24.2120356 C53.5997021,22.0524213 52.3105022,20.6573471 50.3419883,20.6573471 C48.7655143,20.6573471 46.8642112,21.5856875 45.3791992,23.0809542 C43.7880358,24.6855598 42.5171283,26.622062 41.7997051,28.5312641 C41.3933917,29.6078839 41.1747141,30.6319823 41.1431181,31.5578282 C40.8824511,31.7589062 40.6298217,31.9486208 40.4711488,32.0549109 C38.565134,33.33053 38.0203802,32.8912348 37.8424448,32.746004 C36.9770193,32.0465961 37.808493,29.9177464 38.5407441,28.0401403 C39.226017,26.2861466 39.8723492,24.6310983 39.5652583,23.2466947 C39.4744891,22.8376096 39.1938667,22.4964283 38.8095873,22.3287477 C38.4243378,22.1600972 37.983241,22.1853185 37.6207185,22.3956814 C37.0476946,22.7274394 35.1948941,23.140266 34.1052479,23.1857199 C34.136151,23.0320359 34.162481,22.8847265 34.1850694,22.7432374 C34.3100676,21.9635922 34.6023306,20.1373989 33.1874396,18.7589542 C32.2406682,17.8379585 30.7133897,17.7559198 29.4750483,18.5606477 C28.1024238,19.451156 27.5713893,21.1023241 28.1534209,22.6685433 C28.5087373,23.6261238 29.2520747,24.6965076 30.7930726,25.3093037 C29.7359924,28.3552688 27.8988514,31.8438551 26.1657831,33.154119 C25.9354649,32.3302672 25.7072254,30.2725085 26.0089117,25.1364957 C26.0315001,24.7400214 26.0471595,24.4531629 26.0503469,24.298786 C26.105917,23.5256541 26.0780626,22.419517 25.283451,21.5612976 C24.9218985,21.1702278 24.2651729,20.7041868 23.1860587,20.7041868 C22.5790829,20.7041868 21.906975,20.850249 21.136199,21.1490252 C20.4701886,21.4052577 19.8378528,21.716506 19.3070955,22.0496498 C16.9527778,23.5332759 14.70087,26.248176 13.7042102,28.8068976 C12.9215164,30.8196182 13.0262821,32.8563129 13.984694,34.2537429 C14.6793903,35.2652306 15.776104,35.846015 16.995183,35.8467079 L16.9958759,35.8467079 C18.224101,35.8467079 19.5371365,35.2668936 20.7915531,34.17309 C21.8634612,33.2393451 22.661676,32.3818186 23.3016335,31.4875687 C23.4694526,33.8928834 23.9593292,35.1705812 24.8347324,35.7357062 C25.1556812,35.9421888 25.5141849,36.0472316 25.884745,36.0472316 C26.2262035,36.0472316 26.5752839,35.9588183 26.9134165,35.7821301 C29.7408427,34.3062644 32.1553036,29.5470477 33.3941994,25.8077721 C33.6010977,25.8152554 33.8158951,25.8173341 34.0376214,25.8135924 C34.7080663,25.8007046 35.7220484,25.6686388 36.6995843,25.4455268 C36.5216489,25.9832131 36.2949338,26.5635817 36.0905298,27.0874101 C35.0830609,29.6674728 33.8298915,32.8800099 36.185595,34.7850546 C37.6381795,35.9588183 39.5259018,35.8015312 41.7974879,34.323171 C42.4101454,35.2979353 43.360104,35.8300784 44.519594,35.8300784 C46.8441172,35.8300784 49.1035083,33.6837678 49.3528118,33.4400074 C49.9075434,32.8967779 50.4114164,32.3115591 50.8692812,31.6941899 C50.9373235,32.4458421 51.1713833,34.2041317 52.6266008,34.8580857 C52.9676436,35.0107997 53.3157539,35.0778719 53.667883,35.0778719 C54.6001035,35.0778719 55.5535266,34.6061492 56.4480537,34.0216232 C56.395948,37.1952196 56.5004366,40.5195898 56.7543132,44 L59.2903078,42.413964 C59.0678886,38.8060612 59.0069139,35.3702735 59.1305263,32.1126983 C61.0774219,30.7892694 62.797048,29.9453236 64.2785955,29.5780894 L65.3963732,26.7603638 C63.5908282,26.861665 61.5828193,27.5569155 59.3196866,28.8800673 C59.7196254,23.6513452 60.5964144,18.8612254 61.9647429,14.4394485 C62.3929518,13.0536591 63.3976491,9.80883315 65.0007303,9.75839041 C65.5648852,9.73815789 66.0101394,9.89572214 66.3058668,10.7472897 C66.9063294,12.4766164 66.3660101,15.3912087 65.633759,17.3405987 L67.6406592,19.2863856 Z M20.4600723,16.4324909 C17.006685,19.0840604 12.9799967,20.0151723 9.51122717,19.0086734 C10.9804411,12.176593 13.520316,5.56457586 17.5967542,3.30864925 C18.8873399,2.59302759 20.401592,2.52165943 21.7487179,3.10867983 C23.0546858,3.6794865 24.02654,4.79975868 24.3473502,6.10877537 C25.1832584,9.51532295 23.4391038,14.1457997 20.4600723,16.4324909 L20.4600723,16.4324909 Z M26.9868633,5.46479902 C26.4664994,3.33996809 24.9151082,1.53109715 22.8373941,0.624790861 C20.7072971,-0.306459635 18.3168104,-0.191993428 16.2785913,0.936732062 C11.2614792,3.71260687 8.4896232,10.9921587 6.96276041,17.8469662 C4.73745974,16.4103183 3.17165627,14.0661169 2.40586903,11.0547964 L0,12.5597637 C1.13371433,16.2002326 3.36996273,19.0417938 6.3974969,20.6563771 C5.49922819,25.6245707 5.21985304,29.9738709 5.14072447,31.6424999 L5.13254831,31.8153079 C5.07448373,32.9939218 4.94518958,35.6704355 5.06312026,38.5869679 L7.73880249,36.9127957 C7.71164102,34.7477769 7.80171733,32.8712794 7.84647833,31.946265 L7.85534738,31.7713783 C7.99032327,28.9309257 8.34369958,25.3515702 8.98975461,21.6792282 C13.233319,22.8204258 18.0438098,21.709577 22.1178922,18.5829589 C25.9972711,15.6036502 28.0907832,9.9637644 26.9868633,5.46479902 L26.9868633,5.46479902 Z" id="Page-1"></path>
            </g>
        </g>
    </g>
</svg>