<?xml version="1.0" encoding="UTF-8"?>
<svg width="148px" height="44px" viewBox="0 0 148 44" version="1.1" xmlns="http://www.w3.org/2000/svg" xmlns:xlink="http://www.w3.org/1999/xlink">
    <!-- Generator: Sketch 46.2 (44496) - http://www.bohemiancoding.com/sketch -->
    <title>World</title>
    <desc>Created with Sketch.</desc>
    <defs></defs>
    <g id="Page-1" stroke="none" stroke-width="1" fill="none" fillRule="evenodd">
        <g id="World">
            <rect id="Rectangle-Copy" fill="#D8D8D8" opacity="0" x="0" y="0" width="148" height="44"></rect>
            <g id="world_logo" transform="translate(0.000000, 10.000000)">
                <g id="Page-1">
                    <path d="M1.6387681,1.04567559 L10.5208912,1.04567559 C11.0125216,1.04567559 11.6680289,1.37244922 11.7991303,1.86260965 L14.3883839,12.4827524 L15.6993984,2.254738 C15.7977245,1.66654548 16.1910288,0.882288782 16.7809853,0.84961142 L23.6965867,0.653547246 C24.1882172,0.653547246 24.5815215,1.27441713 24.6798476,1.76457756 L26.5480432,11.8292051 L28.5473403,1.69922284 C28.612891,1.27441713 28.97342,0.71890197 29.3994997,0.71890197 L37.1672605,0.71890197 C37.5933402,0.71890197 37.8883185,1.43780394 37.7899924,1.86260965 L33.3325432,20.2272873 C33.1686663,20.8481571 32.8409127,21.7304459 32.1854055,21.7631233 L24.4176447,22.2206064 C23.8604635,22.2532837 22.9427534,22.3513158 22.8116519,21.828478 L20.2879491,11.8945599 L18.5180795,21.5017044 C18.4197534,21.9918648 18.0919998,22.6454121 17.567594,22.6780894 L8.8821231,23.2009272 C8.22661586,23.2662819 7.47278254,22.8087989 7.27613036,22.2206064 L1.01603622,2.71222107 C0.852159412,2.15670591 1.04881158,1.04567559 1.6387681,1.04567559" id="Fill-1" fill="#6850A1"></path>
                    <polygon id="Fill-3" fill="#5F378B" points="43.6567822 1.07835296 45.1972242 0.620869883 45.5249778 0.522837797 45.8855068 0.457483072 46.2788111 0.392128347 46.6393401 0.326773623 47.0326445 0.294096261 47.3276227 0.294096261 47.5898256 0.261418898 47.8848039 0.261418898 48.2125575 0.228741536 48.5075358 0.228741536 48.8352894 0.228741536 49.163043 0.196064174 49.4907966 0.196064174 49.8185502 0.196064174 50.1790792 0.196064174 50.5068328 0.196064174 50.8673618 0.163386811 51.2278908 0.163386811 51.5884198 0.163386811 51.9489488 0.163386811 52.3094777 0.163386811 52.6700067 0.163386811 53.0305357 0.163386811 53.3582893 0.163386811 53.7188183 0.196064174 54.0793473 0.196064174 54.4398763 0.196064174 54.7676299 0.196064174 55.0953835 0.196064174 55.4559125 0.228741536 55.7836661 0.228741536 56.0786444 0.228741536 56.406398 0.261418898 56.7013763 0.261418898 56.9963545 0.261418898 57.2913328 0.294096261 57.5535357 0.294096261 57.94684 0.326773623 58.3401444 0.392128347 58.7006733 0.457483072 59.0939777 0.522837797 59.4217313 0.620869883 59.7822603 0.751579333 60.1100139 0.84961142 60.4377675 1.01299823 60.7655211 1.17638504 61.0604994 1.33977185 61.3554777 1.50315867 61.6176806 1.69922284 61.9126588 1.92796438 62.1420863 2.15670591 62.4042892 2.38544745 62.6337168 2.61418898 62.8631443 2.87560788 63.0597965 3.16970414 63.2564487 3.43112304 63.4531008 3.7252193 63.6169776 4.01931556 63.7480791 4.34608918 63.9119559 4.67286281 64.0430573 4.99963643 64.1413834 5.32641005 64.2397095 5.68586104 64.3380356 6.01263466 64.4035863 6.37208565 64.4363617 6.76421399 64.469137 7.12366498 64.5019124 7.51579333 64.5019124 7.90792167 64.5019124 11.6658183 64.5019124 12.0579467 64.469137 12.450075 64.4363617 12.809526 64.370811 13.2016544 64.3052602 13.5611053 64.2069342 13.9205563 64.1086081 14.2800073 63.9775066 14.6067809 63.8136298 14.9662319 63.289224 16.142617 63.4203255 15.783166 63.5514269 15.423715 63.6825284 15.064264 63.7808544 14.6721357 63.8464052 14.2800073 63.9119559 13.887879 63.9775066 13.4957506 64.010282 13.1036223 64.010282 12.6788166 64.010282 8.72485573 64.010282 8.30005002 63.9775066 7.90792167 63.9447313 7.51579333 63.8791805 7.12366498 63.8136298 6.73153663 63.7153037 6.37208565 63.6169776 6.01263466 63.4858762 5.65318368 63.3547747 5.29373269 63.2236733 4.96695907 63.0597965 4.64018545 62.8631443 4.31341182 62.6664921 4.01931556 62.46984 3.7252193 62.2404124 3.43112304 62.0109849 3.16970414 61.7815574 2.90828524 61.5193545 2.64686635 61.2571516 2.41812481 60.9621733 2.18938327 60.6671951 1.9933191 60.3722168 1.79725493 60.0444632 1.63386811 59.7167096 1.4704813 59.3889559 1.30709449 59.028427 1.17638504 58.667898 1.04567559 58.2745936 0.947643506 57.8812893 0.882288782 57.4879849 0.816934057 57.0946806 0.751579333 56.6686009 0.71890197 56.3736226 0.686224608 56.0786444 0.686224608 55.7836661 0.686224608 55.4559125 0.653547246 55.1281589 0.653547246 54.8004053 0.620869883 54.4398763 0.620869883 54.1121227 0.620869883 53.7515937 0.620869883 53.3910647 0.588192521 53.0305357 0.588192521 52.6372314 0.588192521 52.2767024 0.588192521 51.883398 0.588192521 51.5228691 0.588192521 51.1295647 0.588192521 50.7690357 0.588192521 50.3757314 0.588192521 50.0152024 0.588192521 49.6546734 0.588192521 49.2613691 0.588192521 48.9008401 0.588192521 48.5403111 0.588192521 48.1797821 0.620869883 47.8192532 0.620869883 47.4914995 0.620869883 47.1637459 0.653547246 46.8359923 0.653547246 46.5082387 0.653547246 46.2132604 0.686224608 45.8855068 0.686224608 45.6233039 0.71890197 45.1972242 0.751579333 44.8039198 0.816934057 44.4106155 0.882288782 44.0173112 0.980320869"></polygon>
                    <polygon id="Fill-5" fill="#5F378B" points="55.1609342 13.7898469 56.1114197 12.7441713 55.9147676 12.9402355 55.7181154 13.1036223 55.4886879 13.2996865 55.2592603 13.4303959 55.0298328 13.5611053 54.7676299 13.6591374 54.4726516 13.7244922 54.2104487 13.7571695 53.9154705 13.7571695 51.0312386 13.7571695 50.7362604 13.7571695 50.4412821 13.7244922 50.1790792 13.6591374 49.9168763 13.5611053 49.6546734 13.4303959 49.4252459 13.2996865 49.2285937 13.1036223 49.0319415 12.9402355 48.8352894 12.7441713 48.6714126 12.5154298 48.5403111 12.2866882 48.4092097 12.0252693 48.3108836 11.7638504 48.2453329 11.5351089 48.2125575 11.2410126 48.1797821 10.9469164 48.1797821 8.4961142 48.2125575 8.2346953 48.2453329 7.94059904 48.3108836 7.67918014 48.4092097 7.41776124 48.5403111 7.15634234 48.6714126 6.92760081 48.8352894 6.69885927 49.0319415 6.5027951 49.2285937 6.30673092 49.4252459 6.14334411 49.6546734 6.01263466 48.3764343 6.73153663 48.1470068 6.86224608 47.8848039 7.05831025 47.6881517 7.25437443 47.4914995 7.4504386 47.3276227 7.67918014 47.1637459 7.94059904 47.0326445 8.20201793 46.9343184 8.46343683 46.8687677 8.75753309 46.8359923 9.05162935 46.8032169 9.34572561 46.8032169 11.8945599 46.8359923 12.2213335 46.8687677 12.5154298 46.9343184 12.7768487 47.0326445 13.0709449 47.1637459 13.3323638 47.3276227 13.5611053 47.4914995 13.7898469 47.6881517 14.0185884 47.8848039 14.2146526 48.1470068 14.3780394 48.3764343 14.5414262 48.6386372 14.6721357 48.9008401 14.7701678 49.1958184 14.8355225 49.4907966 14.8681998 49.7857749 14.9008772 52.8338835 14.9008772 53.1616372 14.8681998 53.4566154 14.8355225 53.7188183 14.7701678 54.0137966 14.6721357 54.2759995 14.5414262 54.505427 14.3780394 54.7348545 14.2146526 54.9642821 14.0185884"></polygon>
                    <path d="M45.6233039,0.71890197 C47.1637459,0.620869883 49.2613691,0.588192521 51.3262169,0.588192521 L51.3262169,6.37208565 L49.7857749,6.37208565 C48.1470068,6.37208565 46.8032169,7.7118575 46.8032169,9.34572561 L46.8032169,11.8945599 C46.8032169,13.5611053 48.1470068,14.9008772 49.7857749,14.9008772 L51.3262169,14.9008772 L51.3262169,20.6847703 L46.8032169,20.6847703 C42.3129923,20.6847703 38.6421518,17.0902605 38.6421518,12.6788166 L38.6421518,8.72485573 C38.6421518,4.31341182 41.1330793,1.01299823 45.6233039,0.71890197 L45.6233039,0.71890197 Z M51.3262169,0.588192521 C53.2927386,0.588192521 55.226485,0.620869883 56.6686009,0.71890197 C61.1588255,0.980320869 64.010282,4.31341182 64.010282,8.72485573 L64.010282,12.6788166 C64.010282,17.0902605 60.7327458,20.6847703 56.2425212,20.6847703 L51.3262169,20.6847703 L51.3262169,14.9008772 L52.8338835,14.9008772 C54.4726516,14.9008772 55.8164415,13.5611053 55.8164415,11.8945599 L55.8164415,9.34572561 C55.8164415,7.7118575 54.4726516,6.37208565 52.8338835,6.37208565 L51.3262169,6.37208565 L51.3262169,0.588192521 Z" id="Fill-7" fill="#6850A1"></path>
                    <path d="M68.4677312,1.60119075 C68.4677312,0.686224608 68.7299341,0.392128347 69.5493182,0.392128347 L80.1029847,0.392128347 L80.1029847,6.14334411 L76.0716152,6.14334411 L76.0716152,10.8488843 L80.1029847,10.8488843 L80.1029847,18.5934191 L76.1371659,14.7374904 L76.1371659,20.5867382 C76.235492,21.2729628 75.9732891,21.6650912 75.3833326,21.828478 L69.6148689,21.828478 C68.9593616,21.8611554 68.5660573,21.7304459 68.4677312,21.4036723 L68.4677312,1.60119075 Z M80.1029847,0.392128347 L84.0360282,0.392128347 C86.9530354,0.555515159 90.001144,0.490160434 91.2466078,4.73821753 C91.44326,6.27405356 91.6071368,7.80988959 91.2466078,9.34572561 C90.2633469,12.5154298 88.5590281,13.6918148 86.4941803,14.345362 C88.7884556,16.1752943 90.5911006,17.8418398 92.623173,20.1292552 C92.9509266,20.4887062 92.5903976,21.5343817 92.0659918,21.5343817 L84.1015789,21.5343817 C83.5771731,21.5343817 82.9872166,21.3709949 82.5939122,21.011544 L80.1029847,18.5934191 L80.1029847,10.8488843 L82.4300354,10.8488843 C83.3805209,10.8488843 84.1671296,10.0646276 84.1671296,9.11698408 L84.1671296,7.87524431 C84.1671296,6.92760081 83.3805209,6.14334411 82.4300354,6.14334411 L80.1029847,6.14334411 L80.1029847,0.392128347 Z" id="Fill-9" fill="#6850A1"></path>
                    <polygon id="Fill-11" fill="#5F378B" points="94.884673 0.457483072 96.0318107 0.130709449 96.1956875 0.0980320869 103.17684 0.163386811 103.307941 0.163386811 103.439042 0.228741536 103.537369 0.294096261 103.635695 0.392128347 103.701245 0.522837797 103.734021 0.653547246 103.766796 0.816934057 103.766796 0.980320869 103.766796 12.3520429 103.111289 13.4630733 103.111289 1.37244922 103.111289 1.2090624 103.078513 1.04567559 103.045738 0.882288782 102.980187 0.751579333 102.881861 0.653547246 102.783535 0.588192521 102.652434 0.522837797 102.488557 0.490160434 95.0485498 0.457483072"></polygon>
                    <polygon id="Fill-13" fill="#5F378B" points="103.111289 13.4630733 103.766796 12.3520429 114.648216 12.3520429 114.812093 12.3520429 114.97597 12.3847203 115.107071 12.450075 115.205397 12.5481071 115.303724 12.6461392 115.369274 12.7768487 115.40205 12.9402355 115.40205 13.1036223 115.500376 14.2800073 115.500376 14.1166205 115.4676 13.9532337 115.369274 13.8225242 115.303724 13.6918148 115.172622 13.5937827 115.041521 13.528428 114.877644 13.4957506 114.680992 13.4630733"></polygon>
                    <path d="M94.1308397,1.56851339 C94.1308397,1.07835296 94.5569194,0.457483072 95.0485498,0.457483072 L102.488557,0.490160434 C102.947412,0.522837797 103.111289,0.914966144 103.111289,1.37244922 L103.111289,13.4630733 L114.680992,13.4630733 C115.205397,13.4630733 115.500376,13.7898469 115.500376,14.2800073 L115.500376,20.292642 C115.500376,20.7174477 115.008745,21.2402855 114.582666,21.2076081 L95.1141005,20.5867382 C94.5896947,20.5540609 94.1308397,20.0639004 94.1308397,19.5410626 L94.1308397,1.56851339 Z" id="Fill-15" fill="#6850A1"></path>
                    <polygon id="Fill-17" fill="#5F378B" points="118.64681 1.24579516 123.235361 0.784256695 123.399238 0.784256695 118.810687 1.24579516"></polygon>
                    <g id="Group-21" transform="translate(117.445047, 0.773389)" fill="#6850A1">
                        <path d="M0.447929947,1.51402623 C0.513480671,0.697092173 0.841234291,0.337641188 1.36564008,0.402995913 C5.26590816,0.141577015 9.13340088,0.0108675654 13.033669,0.07622229 L13.033669,7.36327408 L8.510669,7.36327408 C8.47789364,9.87943098 8.41234291,12.3955879 8.37956755,14.9444221 C9.92000956,15.0424542 11.4932269,15.1731637 13.033669,15.3038731 L13.033669,22.329506 C8.80564726,22.0680871 4.74150237,21.5452493 0.742908205,20.8917021 C0.349603861,20.7609926 0.120176327,20.5322511 0.0546256033,20.2708322 C0.185727051,13.9967786 0.316828499,7.78807979 0.447929947,1.51402623 L0.447929947,1.51402623 Z M13.033669,0.07622229 C13.5908501,0.108899652 14.1808066,0.108899652 14.7707631,0.141577015 C21.2275095,0.304963826 25.4227558,1.41599414 26.7665456,6.87311365 C27.4876036,11.774718 27.4876036,16.8397091 25.1933283,19.8787038 C22.7024007,22.7216344 19.8181689,22.5582475 16.8356109,22.4602155 C15.5573718,22.4275381 14.2791327,22.3948607 13.033669,22.329506 L13.033669,15.3038731 C13.5580747,15.3365505 14.0824805,15.3692278 14.574111,15.4019052 C16.2784298,15.4019052 17.3600167,14.6176485 17.654995,12.9184257 L17.654995,9.78139889 C17.3272414,8.18020814 16.114553,7.55933825 14.5413356,7.36327408 L13.033669,7.36327408 L13.033669,0.07622229 Z" id="Fill-19"></path>
                    </g>
                    <path d="M145.78481,19.0835796 L145.588158,19.3449985 L145.35873,19.57374 L145.129303,19.7698042 L144.899875,19.9658684 L144.670448,20.1619325 L144.44102,20.3253193 L144.211593,20.4560288 L143.982165,20.6194156 L143.752738,20.7501251 L140.475202,22.3839932 C141.229035,21.9918648 141.950093,21.4363497 142.638375,20.652093 C144.932651,17.6130983 144.932651,12.5481071 144.211593,7.64650278 C143.883839,6.30673092 143.359433,5.1957006 142.671151,4.31341182 C142.507274,4.11734765 142.310622,3.88860611 142.146745,3.69254194 C142.048419,3.59450985 141.950093,3.52915513 141.851767,3.43112304 L141.818991,3.43112304 C141.720665,3.33309095 141.622339,3.23505887 141.524013,3.16970414 C141.425687,3.07167206 141.327361,3.00631733 141.196259,2.94096261 L141.196259,2.90828524 C141.097933,2.84293052 140.966832,2.77757579 140.868506,2.71222107 L140.835731,2.67954371 C140.737404,2.61418898 140.639078,2.54883426 140.507977,2.5161569 L140.507977,2.48347953 L140.475202,2.48347953 C140.376875,2.41812481 140.245774,2.35277008 140.147448,2.28741536 L140.114673,2.28741536 C140.016346,2.22206064 139.885245,2.18938327 139.786919,2.12402855 L139.754144,2.12402855 L139.721368,2.09135119 C139.590267,2.05867382 139.491941,2.02599646 139.393615,1.96064174 L139.328064,1.96064174 L139.295288,1.92796438 C139.196962,1.89528701 139.065861,1.86260965 138.967535,1.82993229 L138.93476,1.79725493 L138.869209,1.79725493 C138.770883,1.76457756 138.639781,1.7319002 138.541455,1.69922284 L138.50868,1.66654548 L138.443129,1.66654548 C138.344803,1.63386811 138.213702,1.60119075 138.0826,1.56851339 L138.049825,1.56851339 L137.984274,1.53583603 C137.885948,1.50315867 137.754846,1.4704813 137.623745,1.4704813 L137.59097,1.43780394 L137.525419,1.43780394 C137.427093,1.40512658 137.295991,1.37244922 137.16489,1.37244922 L137.099339,1.33977185 L137.033789,1.33977185 C136.902687,1.30709449 136.771586,1.30709449 136.640484,1.27441713 L136.607709,1.27441713 L136.574933,1.27441713 C136.443832,1.24173977 136.312731,1.2090624 136.181629,1.2090624 L136.116078,1.17638504 L136.017752,1.17638504 C135.919426,1.17638504 135.8211,1.14370768 135.689999,1.14370768 L135.591673,1.11103032 L135.493346,1.11103032 C135.39502,1.11103032 135.296694,1.07835296 135.165593,1.07835296 L135.067267,1.07835296 L134.968941,1.04567559 C134.837839,1.04567559 134.739513,1.04567559 134.608412,1.01299823 L134.510086,1.01299823 L134.41176,1.01299823 C134.313433,1.01299823 134.215107,1.01299823 134.116781,0.980320869 L133.952904,0.980320869 L133.789028,0.980320869 C133.690702,0.980320869 133.625151,0.947643506 133.526825,0.947643506 L133.395723,0.947643506 L133.264622,0.947643506 C133.166296,0.947643506 133.035194,0.947643506 132.936868,0.914966144 L132.805767,0.914966144 L132.674665,0.914966144 L132.21581,0.914966144 L131.789731,0.882288782 L131.363651,0.882288782 L130.937571,0.882288782 L130.544267,0.84961142 L130.118187,0.84961142 L129.692107,0.84961142 L129.266028,0.84961142 L128.872723,0.84961142 L128.446644,0.84961142 L128.020564,0.84961142 L127.594484,0.84961142 L127.20118,0.84961142 L126.7751,0.84961142 L126.34902,0.84961142 L125.922941,0.84961142 L125.529636,0.882288782 L125.103557,0.882288782 L124.677477,0.882288782 L124.251397,0.914966144 L123.858093,0.914966144 L123.432013,0.947643506 L123.005934,0.947643506 L122.579854,0.980320869 L122.153774,0.980320869 L121.76047,1.01299823 L121.33439,1.04567559 L120.90831,1.04567559 L120.482231,1.07835296 L120.088926,1.11103032 L119.662847,1.14370768 L119.236767,1.17638504 L118.810687,1.17638504 L123.399238,0.784256695 L123.792542,0.784256695 L124.185847,0.751579333 L124.579151,0.71890197 L124.972455,0.686224608 L125.36576,0.686224608 L125.759064,0.653547246 L126.152368,0.620869883 L126.545673,0.620869883 L126.938977,0.588192521 L127.332281,0.588192521 L127.725586,0.555515159 L128.11889,0.555515159 L128.512194,0.522837797 L128.905499,0.522837797 L129.298803,0.522837797 L129.692107,0.490160434 L130.085412,0.490160434 L130.478716,0.490160434 L130.87202,0.490160434 L131.265325,0.457483072 L131.658629,0.457483072 L132.051933,0.457483072 L132.445238,0.457483072 L132.838542,0.457483072 L133.231847,0.457483072 L133.625151,0.457483072 L134.018455,0.490160434 L134.41176,0.490160434 L134.805064,0.490160434 L135.198368,0.490160434 L135.591673,0.522837797 L135.984977,0.522837797 L136.542158,0.555515159 L137.099339,0.555515159 L137.65652,0.588192521 L138.180926,0.620869883 L138.672557,0.686224608 L139.196962,0.71890197 L139.655817,0.784256695 L140.147448,0.84961142 L140.606303,0.947643506 L141.065158,1.04567559 L141.491238,1.14370768 L141.917317,1.24173977 L142.310622,1.37244922 L142.703926,1.50315867 L143.064455,1.66654548 L143.457759,1.82993229 L143.785513,2.02599646 L144.113267,2.22206064 L144.44102,2.41812481 L144.768774,2.64686635 L145.030977,2.90828524 L145.325955,3.16970414 L145.588158,3.43112304 L145.817586,3.7252193 L146.079788,4.05199292 L146.276441,4.41144391 L146.473093,4.77089489 L146.669745,5.13034588 L146.833622,5.52247423 L146.997499,5.94727994 L147.1286,6.40476301 L147.259701,6.89492344 L147.325252,7.31972915 L147.390803,7.74453486 L147.456354,8.16934057 L147.489129,8.62682364 L147.521904,9.05162935 L147.587455,9.47643506 L147.62023,9.90124077 L147.653006,10.3260465 L147.653006,10.7508522 L147.685781,11.1756579 L147.685781,11.6004636 L147.685781,11.992592 L147.685781,12.4173977 L147.653006,12.809526 L147.653006,13.2343317 L147.62023,13.6264601 L147.55468,14.0185884 L147.521904,14.4107168 L147.456354,14.8028451 L147.390803,15.1622961 L147.325252,15.5544244 L147.226926,15.9138754 L147.1286,16.2733264 L147.030274,16.6327774 L146.931948,16.959551 L146.800846,17.2863247 L146.669745,17.6130983 L146.505868,17.9398719 L146.341991,18.2339682 L146.178115,18.5280644 L145.981462,18.8221607 L145.78481,19.0835796 Z" id="Fill-22" fill="#5F378B"></path>
                    <path d="M132.019158,16.1752943 L131.888057,16.1752943 C131.855281,16.1752943 131.789731,16.1752943 131.756955,16.142617 L131.72418,16.142617 C129.757658,16.0119075 127.791136,15.8485207 125.824615,15.7178113 C125.85739,13.168977 125.922941,10.6528201 125.955716,8.13666321 L130.085412,8.13666321 C130.052636,10.2280144 130.019861,12.3520429 129.987086,14.4433941 C131.593078,14.5741036 133.166296,14.6721357 134.739513,14.8028451 C134.313433,15.5871018 133.592375,16.0119075 132.64189,16.142617 L132.019158,16.1752943 Z" id="Fill-24" fill="#5F378B"></path>
                    <path d="M82.8233398,21.1749308 L80.0046586,19.3449985 L79.9391079,19.2796438 L79.8407818,19.2469664 L79.7752311,19.1816117 L76.1371659,15.6524565 L76.1371659,14.7374904 L82.5939122,21.011544 C82.6266876,21.011544 82.659463,21.0442213 82.659463,21.0768987 C82.6922383,21.0768987 82.7250137,21.109576 82.757789,21.1422534 C82.7905644,21.1422534 82.7905644,21.1749308 82.8233398,21.1749308" id="Fill-26" fill="#5F378B"></path>
                    <path d="M82.9544412,6.2413762 L82.9216659,6.2413762 L82.8561151,6.20869883 C82.7250137,6.17602147 82.5611369,6.14334411 82.4300354,6.14334411 L81.0206949,6.14334411 L81.0534702,6.20869883 L81.1190209,6.33940828 L81.1517963,6.5027951 L81.217347,6.66618191 L81.217347,6.82956872 L81.2501224,6.99295553 L81.2501224,8.10398585 L81.217347,8.26737266 L81.217347,8.43075947 L81.1517963,8.59414628 L81.1190209,8.72485573 L81.0534702,8.88824254 L80.9551441,9.01895199 L80.856818,9.14966144 L80.758492,9.24769353 L80.6601659,9.34572561 L80.5290644,9.4437577 L80.397963,9.54178979 L80.2340862,9.60714451 L80.1029847,9.63982188 L79.9391079,9.7051766 L79.7752311,9.7051766 L79.6113543,9.73785396 L76.0716152,9.73785396 L76.0716152,10.8488843 L82.4300354,10.8488843 L82.5939122,10.8488843 L82.757789,10.8162069 L82.9544412,10.7508522 L83.0855427,10.7181748 L83.2494195,10.6201427 L83.3805209,10.554788 L83.5443977,10.4567559 L83.6427238,10.3260465 L83.7738253,10.195337 L83.8721514,10.0646276 L83.9377021,9.93391814 L84.0360282,9.77053132 L84.1015789,9.60714451 L84.1343542,9.4437577 L84.1671296,9.28037089 L84.1671296,9.11698408 L84.1671296,7.87524431 L84.1671296,7.7118575 L84.1343542,7.54847069 L84.1015789,7.38508388 L84.0360282,7.22169707 L83.9377021,7.05831025 L83.8721514,6.92760081 L83.7738253,6.79689136 L83.6427238,6.66618191 L83.5443977,6.56814982 L83.3805209,6.43744037 L83.2494195,6.37208565 L83.0855427,6.30673092 L82.9544412,6.2413762 Z" id="Fill-28" fill="#5F378B"></path>
                    <path d="M82.5611369,0.196064174 L81.1190209,0 L67.6483472,0 L67.3861443,0 L67.1567167,0.0653547246 L66.9928399,0.130709449 L66.8617385,0.228741536 L66.7634124,0.392128347 L66.6978617,0.588192521 L66.6650863,0.84961142 L66.6323109,1.14370768 L66.6323109,19.5410626 L68.4677312,21.4036723 L68.4677312,1.60119075 C68.4677312,1.37244922 68.4677312,1.17638504 68.5005066,1.01299823 C68.5660573,0.784256695 68.6643834,0.620869883 68.8282602,0.522837797 L68.8610356,0.522837797 C68.8938109,0.490160434 68.9593616,0.457483072 69.0249124,0.457483072 C69.0904631,0.42480571 69.1887892,0.392128347 69.2543399,0.392128347 L69.2871153,0.392128347 L69.5493182,0.392128347 L82.5611369,0.392128347 L82.5611369,0.196064174 Z M81.1190209,0 L81.3812238,0 L81.6106514,0.0326773623 L81.8728543,0.0326773623 L82.1350572,0.0653547246 L82.3972601,0.0653547246 L82.5611369,0.0980320869 L82.5611369,0.196064174 L81.1190209,0 Z M82.5611369,0.392128347 L84.0360282,0.392128347 L82.5611369,0.196064174 L82.5611369,0.392128347 Z M82.5611369,0.0980320869 L82.659463,0.0980320869 L82.8888905,0.130709449 L83.1510934,0.130709449 L83.3805209,0.163386811 L86.2647528,0.555515159 L84.5932093,0.42480571 L84.2982311,0.392128347 L84.0360282,0.392128347 L82.5611369,0.196064174 L82.5611369,0.0980320869 Z" id="Fill-30" fill="#5F378B"></path>
                    <path d="M7.5055579,22.6127347 L6.16176806,21.109576 L6.09621733,21.011544 L6.03066661,20.9135119 L5.96511588,20.8154798 L5.93234052,20.7174477 L0.065550724,2.38544745 L0.032775362,2.28741536 L0.032775362,2.15670591 L0,2.02599646 L0,1.92796438 L0,1.79725493 L0.032775362,1.66654548 L0.032775362,1.53583603 L0.065550724,1.40512658 L0.131101448,1.27441713 L0.16387681,1.17638504 L0.229427534,1.07835296 L0.294978258,0.980320869 L0.360528982,0.914966144 L0.426079706,0.882288782 L0.524405792,0.816934057 L0.622731878,0.816934057 L9.01322455,0.816934057 L9.17710136,0.84961142 L10.7175434,1.07835296 C10.6519926,1.04567559 10.5864419,1.04567559 10.5208912,1.04567559 L1.6387681,1.04567559 C1.57321738,1.04567559 1.54044201,1.04567559 1.50766665,1.07835296 C1.47489129,1.07835296 1.44211593,1.07835296 1.40934057,1.11103032 C1.3765652,1.11103032 1.3765652,1.14370768 1.34378984,1.14370768 C1.31101448,1.17638504 1.27823912,1.2090624 1.24546376,1.24173977 C1.24546376,1.27441713 1.21268839,1.27441713 1.17991303,1.30709449 L1.17991303,1.33977185 C1.17991303,1.37244922 1.14713767,1.40512658 1.14713767,1.43780394 L1.11436231,1.43780394 C1.11436231,1.4704813 1.08158695,1.50315867 1.08158695,1.53583603 C1.04881158,1.60119075 1.04881158,1.63386811 1.04881158,1.66654548 C1.01603622,1.69922284 1.01603622,1.76457756 1.01603622,1.79725493 C0.98326086,1.86260965 0.98326086,1.89528701 0.98326086,1.92796438 L0.98326086,2.05867382 L0.98326086,2.09135119 C0.950485498,2.12402855 0.950485498,2.15670591 0.950485498,2.22206064 L0.950485498,2.35277008 C0.98326086,2.38544745 0.98326086,2.45080217 0.98326086,2.48347953 L0.98326086,2.58151162 C1.01603622,2.64686635 1.01603622,2.67954371 1.01603622,2.71222107 L7.27613036,22.2206064 C7.30890573,22.3513158 7.40723181,22.5147026 7.5055579,22.6127347" id="Fill-32" fill="#5F378B"></path>
                    <path d="M13.1429202,7.4504386 L13.8639781,1.92796438 L13.8967535,1.7319002 L13.9950796,1.50315867 L14.0606303,1.30709449 L14.1917317,1.07835296 L14.3228332,0.914966144 L14.48671,0.784256695 L14.6833622,0.686224608 L14.8800143,0.620869883 L21.369536,0.457483072 L23.6965867,0.653547246 L16.7809853,0.84961142 C16.7154346,0.84961142 16.6498839,0.882288782 16.5515578,0.882288782 C16.4860071,0.914966144 16.4204564,0.947643506 16.387681,0.980320869 C16.3221303,1.04567559 16.2565796,1.07835296 16.1910288,1.14370768 C16.1582535,1.2090624 16.0927027,1.27441713 16.0599274,1.33977185 C15.8632752,1.60119075 15.7649491,1.96064174 15.6993984,2.254738 L14.3883839,12.4827524 L13.1429202,7.4504386 Z" id="Fill-34" fill="#5F378B"></path>
                    <path d="M25.2698041,4.86892698 L25.9253113,1.43780394 L25.9580867,1.27441713 L26.0236374,1.11103032 L26.1219635,0.980320869 L26.2202896,0.816934057 L26.3186157,0.686224608 L26.4497171,0.588192521 L26.5808186,0.522837797 L26.7446954,0.522837797 L34.0536011,0.522837797 L37.1672605,0.71890197 L29.3994997,0.71890197 C29.333949,0.71890197 29.3011736,0.71890197 29.2356229,0.751579333 C29.2028475,0.751579333 29.1372968,0.784256695 29.1045215,0.816934057 C29.0389707,0.84961142 29.0061954,0.882288782 28.97342,0.914966144 L28.9406446,0.914966144 C28.9078693,0.947643506 28.8750939,1.01299823 28.8423186,1.04567559 C28.8095432,1.11103032 28.7767678,1.14370768 28.7439925,1.2090624 C28.7112171,1.27441713 28.6784417,1.30709449 28.6456664,1.37244922 C28.612891,1.50315867 28.5473403,1.60119075 28.5473403,1.69922284 L26.5480432,11.8292051 L25.2698041,4.86892698 Z" id="Fill-36" fill="#5F378B"></path>
                    <path d="M22.9755288,22.0572195 L20.7795795,20.6194156 L20.6812534,20.5540609 L20.6484781,20.4887062 L20.5829273,20.4233514 L20.550152,20.3579967 L19.5013404,16.1752943 L20.2879491,11.8945599 L22.8116519,21.828478 C22.8444273,21.9265101 22.909978,22.0245422 22.9755288,22.0572195" id="Fill-38" fill="#5F378B"></path>
                </g>
            </g>
        </g>
    </g>
</svg>